<svg xmlns="http://www.w3.org/2000/svg" xmlns:xlink="http://www.w3.org/1999/xlink" width="628.43" height="653.78" viewBox="0 0 628.43 653.78"><defs><linearGradient id="a" y1="326.89" x2="628.43" y2="326.89" gradientUnits="userSpaceOnUse"><stop offset="0" stop-color="#ff7bac"/><stop offset="0.22" stop-color="#ff7bac" stop-opacity="0.76"/><stop offset="0.6" stop-color="#ff7bac" stop-opacity="0.36"/><stop offset="0.87" stop-color="#ff7bac" stop-opacity="0.1"/><stop offset="1" stop-color="#ff7bac" stop-opacity="0"/></linearGradient></defs><title>logo</title><polygon points="615.13 541.56 391.44 495.57 226.74 653.78 201.35 426.82 0 319.07 208 224.79 248.25 0 402.19 168.69 628.43 137.5 515.57 336.04 615.13 541.56" style="fill:url(#a)"/><path d="M262,265.09v-37.6h127.7v48.1H377.17ZM402.2,639.32l115.19,10.5v37.6H262v-37.6l115.19-10.5ZM323.05,444.5c0-72.1,0-144.91-2.38-217H456.4C454,298.78,454,370.41,454,446.45V468c0,74.55,0,147.36,2.38,219.46H320.67c2.38-70.71,2.38-143.51,2.38-217Zm67.78-7.61H484.3c78.84,0,102.92-40.6,102.92-85.69,0-56.28-34.56-83.43-99.34-83.43h-98.2V227.49H520.16c124.85,0,194,43.48,194,116.13,0,53.45-45.16,108.36-185.76,115.05l.66-7.12c125.28,3.39,156.76,39.62,170.74,114.74l21.14,108.13-65.26-36,119,11.43v37.6c-37.76,7.73-50.51,10-86.91,10-67.53,0-107.28-17.26-115.08-71.69l-14.79-81.27C550,497.38,530.37,476,482.82,476h-92Z" transform="translate(-174.79 -119.12)" style="fill:#ed1c24"/><path d="M551.11,486.84A109.44,109.44,0,0,1,563.25,490c-.63,1-1,1.5-1.65,2.5-9.52-2.56-19.2-3.77-29-5,.23-.91.33-1.35.49-2.25,6.34.33,9.34.56,15,1.11ZM542.67,474a22,22,0,0,0-4.62-11.91c10.25.06,15.05.2,24,.67a36.87,36.87,0,0,1-.46,13c-.11.53-.18.8-.31,1.33a64,64,0,0,1-5.78,14c-5.65-1.23-8.72-1.77-15.4-2.66a29.83,29.83,0,0,0,2.64-12.95C542.74,474.85,542.72,474.55,542.67,474Zm10.18.28c5.43.46,8,.74,12.9,1.38,10.31,1.34,13.88-.65,14.8-3.53,1.14-3.6-3.19-5.94-13.15-6.7-6-.46-9.22-.64-15.91-.9a21.5,21.5,0,0,0-.83-2.23c9.22.27,13.52.5,21.57,1.13,6.85,1.11,25.12,3.61,23.39,11.06-.69,3-7.54,5.71-24.76,3.35.1-.17.16-.26.26-.44,15.21,2.68,15.94,6.31,13,12a67.65,67.65,0,0,1-4.84,8.31,22.59,22.59,0,0,0-2.85-4.63,47.65,47.65,0,0,1,8.22,4.72c-1,1.08-1.55,1.62-2.62,2.71a35.3,35.3,0,0,1-6.64-2.27c-4.94-2.22-7.48-4.49-5.72-8.37a35.75,35.75,0,0,0,1.88-5.79c.9-3.29-.75-5.12-6.74-6-4.63-.67-7.07-1-12.22-1.46C552.74,475.64,552.79,475.17,552.85,474.24ZM528.21,464a24.5,24.5,0,0,0-1.56-1.9c10.19-.1,15-.06,24,.19a20.87,20.87,0,0,1,1,2.67l-2.13-.08C541.53,464.33,537.28,464.15,528.21,464Z" transform="translate(-174.79 -119.12)" style="fill:#f2f2f2"/><path d="M594.13,488.63c5.59-7,18.24-10,26.25-5.85s6.2,13.83-4.08,22.41-19.09,10.1-24,4.67S588,496.28,594.13,488.63Zm16.65,10.47c8.36-7.61,10.15-11.9,7.15-13.6s-7.24.7-14.45,8.06-9.89,11.56-8,13.52S602.38,506.75,610.78,499.1Z" transform="translate(-174.79 -119.12)" style="fill:#f2f2f2"/><path d="M606.5,529.77c-1.47,1.06-2.21,1.58-3.7,2.64a35.45,35.45,0,0,0-2.32-11.49l3.38-2.58c1.18,1.08,1.74,1.63,2.79,2.76a34,34,0,0,1,.81,3.31C607.17,526.52,607,527.6,606.5,529.77Zm-5.31-6.67c3.38-2.41,10.94-8.12,15.33-11.58,1.63-1.29,2.45-1.94,4.05-3.23,3.83-3.07,5.23-4.25,7.83-6.6a28,28,0,0,0-1.09-2.89l2.5-2.17a76,76,0,0,1,9.57,4.16c-.15.53-.23.8-.39,1.33-3,2.68-4.59,4-7.76,6.71-4.85,3.8-7.34,5.7-12.4,9.49-4.69,3.52-12.68,9.39-16.22,12A35.16,35.16,0,0,0,601.19,523.1Zm7.06,15.22c-.76,2.26-1.18,3.4-2.07,5.7l-3.92,2.65a65,65,0,0,0,.64-12.46l3.74-2.64c.73,1.18,1.08,1.78,1.73,3C608.36,536.06,608.34,536.81,608.25,538.32Zm21.35-12.88c-3.8,2.71-5.72,4.06-9.57,6.76-5.29,3.71-13.73,9.55-17.52,12.21a64.06,64.06,0,0,0,.43-7.85c3.67-2.46,11.84-8.18,16.92-11.85,3-2.21,4.57-3.32,7.58-5.54,5.46-4,7.31-6.16,6.78-8.14s-3.88-1.85-7.07-1c-.24-.63-.37-.94-.63-1.56,1.84-1.46,2.75-2.19,4.55-3.65.51,1.05.74,1.58,1.16,2.65l-2.54.31c7.49-2.5,11.75-2.57,12.62.88C643.39,513,639,518.71,629.6,525.44Zm-23.33,27.89c-1.07,2.43-1.62,3.65-2.73,6.11l-4,2.65c1.16-5.46,1.71-8.15,2.45-13.35l3.95-2.66c.45,1.23.67,1.85,1.07,3.1C606.73,550.83,606.58,551.66,606.27,553.33Zm21.57-12.55c-3.85,2.62-5.78,3.92-9.63,6.52-5.53,3.72-14.25,9.57-18.15,12.23.7-3.42,1-5.11,1.56-8.42,3.82-2.47,12.43-8.22,17.85-11.94,3.28-2.25,4.92-3.38,8.18-5.64,6.34-4.41,8.05-6.4,8.09-8.44s-2.31-2.46-6-1.66c0-.68-.05-1-.1-1.7l5.3-3.88c.14,1.34.19,2,.25,3.38l-2.54-.2c8.51-2.64,11.13-1.69,11,1.75C643.46,527.89,638.08,533.79,627.84,540.78Z" transform="translate(-174.79 -119.12)" style="fill:#f2f2f2"/><path d="M620.06,550.69c12.73-9.06,21.35-8.59,19.06-1-3.59,12-15.25,22.17-25.72,29.28-13,8.82-20.83,8.34-18.78.28C597.8,566.82,610,557.86,620.06,550.69Zm-4.62,18.85c12.24-8.13,18.29-13.54,19.08-16.71s-4.41-1-16.77,7.25-18,13.2-18.71,16.31S603.14,577.7,615.44,569.54Z" transform="translate(-174.79 -119.12)" style="fill:#f2f2f2"/><path d="M600.2,619.43l-3.33,2.51c-.72-1.14-1.06-1.71-1.71-2.86l10.88-6c.17,1.68.28,2.52.57,4.18-4.11,3-6.1,4.44-9.94,7.3-2.67-1.41-5-4.08-5.57-8.7-.58-17,17-30.52,28.68-38.08,1.91-1.23,32.45-18.63,24.69,1.06-1,4.58-3,9.24-5.94,14.58-4.86,3.54-7.23,5.28-11.85,8.69,0-1.76.09-2.65.21-4.43,4.91-4.24,7.47-6.4,12.73-10.8-.76,2-1.12,2.94-1.8,4.88l-4.33,3.06c3.6-5.18,5.49-8.61,6-11.32,1.19-6.41-5.22-6.34-21.78,4.55-8.1,5.34-22,15.18-22.49,26.33C595.48,617.09,597.33,618.68,600.2,619.43Z" transform="translate(-174.79 -119.12)" style="fill:#f2f2f2"/><path d="M605.72,640.3c-.88.8-1.31,1.2-2.16,2a40.73,40.73,0,0,1-7.79-13.13l2.77-2.19c1.16,1.56,1.77,2.34,3.09,3.88a40.64,40.64,0,0,0,2,3.88A32.42,32.42,0,0,0,605.72,640.3Zm32.57-39.8c.33-1.69.52-2.53.93-4.23l3.26-2.33a72.31,72.31,0,0,0,2.94,9.85c-.28.6-.41.9-.68,1.5-4,2.89-5.92,4.32-9.69,7.11-5.31,4.08-7.85,6.07-12.68,9.93l-.73.8c-3.77,3-5.58,4.51-9,7.4s-8.67,7.53-10.75,9.58a40.65,40.65,0,0,1-4.92-8.25c2.57-2,8.65-6.76,12.54-9.78C619,614.72,628.58,607.56,638.29,600.5ZM616,649.27a42.2,42.2,0,0,0,5.15,5.11c-.54.71-.79,1-1.3,1.74-7.16-4.46-10-6.85-14.52-11.85.8-.78,1.21-1.17,2-2,1.83,1.4,2.79,2.09,4.81,3.46C613.55,647.19,614.32,647.89,616,649.27Zm12.55-8.61c-2,2-3,3-4.79,4.93a98.48,98.48,0,0,0-7.07,8.46,56.47,56.47,0,0,1-9.1-7.43c1.91-1.75,6.33-6,9.4-8.79,2-1.85,3.06-2.79,5.23-4.71,3.36-3,4.24-4.73,3.36-6.91-.81-2-3.42-2.84-7.15-2.67-.25-.78-.37-1.17-.59-2l4.53-3.55c.32,1.45.51,2.18.93,3.61l-2.34-.73c7.37-1.14,10.07.35,11.63,4.26C634.47,630,633.51,635.67,628.5,640.66Z" transform="translate(-174.79 -119.12)" style="fill:#f2f2f2"/><path d="M643.65,655.94c3.34,1.31,9.43,3.57,13.8,5-.22.58-.32.86-.5,1.42-4.51-1.42-9.28-3.09-11.89-3.81-4-1.18-7-1.18-7.89.48s.87,3.59,4,4.86a23.85,23.85,0,0,0,6.62,1.46l4.19.51c.38.33.57.5,1,.82l-4.53-.07c-5.2-.13-8.78-.21-15.2-2.95-6.83-2.93-9.65-6.77-7.28-9.89C627.94,651.11,631.17,651,643.65,655.94Zm3.49,9.75a30.67,30.67,0,0,1,3.47-8.5c1.75-3.21,1.15-5-2.82-7.94a63.13,63.13,0,0,0-5.9-3.81c2,.67,3.08,1,5.2,1.67-1.09,1-1.62,1.49-2.65,2.46-2.2,2.53-5.07,2.1-7.4.34-2.16-1.62-2.87-3.44-2-5.19,3.43-3.21,8.6-1.5,17.91,5.11,8.3,5.89,12.12,9.92,11.19,14.25a15.82,15.82,0,0,0-.3,6.79c.08.55,1.12,1.07,2.89,1.51a10.62,10.62,0,0,0,3.59.33c1.4.51,2.11.76,3.59,1.25-2.48.71-7.13.28-14.44-1.59C651.27,670.27,647.5,667.93,647.14,665.69Z" transform="translate(-174.79 -119.12)" style="fill:#f2f2f2"/><path d="M716.63,680.66c3.2.35,5.84.51,8.75.6,2.18.34,3.29.5,5.57.82-2.63.39-10.46.21-23-1.21-15.48-1.77-24-4-25.52-6.48a17.57,17.57,0,0,1-2.1-8.11c-2.86-.91-4.24-1.38-6.88-2.34.13-.77.2-1.16.4-2,4.66,1.63,7.13,2.41,12.42,3.91l-6.31-.81,7.25-3.27c4.14,1.57,6.35,2.33,11,3.78a13.44,13.44,0,0,0,1.12,5.16c1.53,3.37,2.81,4.87,6.42,7.49C707.23,679.23,711.47,680.09,716.63,680.66Zm-3.5-7.83a14.66,14.66,0,0,0,1.49,1.69A244.31,244.31,0,0,1,689.73,669a14.69,14.69,0,0,1-.36-2A219.13,219.13,0,0,0,713.13,672.83Z" transform="translate(-174.79 -119.12)" style="fill:#f2f2f2"/></svg>